<?xml version="1.0" encoding="UTF-8" standalone="no"?><!DOCTYPE svg PUBLIC "-//W3C//DTD SVG 1.1//EN" "http://www.w3.org/Graphics/SVG/1.1/DTD/svg11.dtd"><svg width="100%" height="100%" viewBox="0 0 52 52" version="1.1" xmlns="http://www.w3.org/2000/svg" xmlns:xlink="http://www.w3.org/1999/xlink" xml:space="preserve" xmlns:serif="http://www.serif.com/" style="fill-rule:evenodd;clip-rule:evenodd;stroke-linejoin:round;stroke-miterlimit:2;"><path id="Logo" d="M24.988,51.438c-0.031,0.031 -0.062,0.062 -0.093,0.093l-8.665,-3.62l2.154,-3.076l6.604,6.603Zm7.547,-6.29l1.958,2.904l-8.206,3.428c-0.014,-0.014 -0.028,-0.028 -0.042,-0.042l6.29,-6.29Zm-0.507,-0.751c-2.137,2.138 -4.274,4.275 -6.412,6.412l-6.714,-6.714l6.582,-9.4l6.544,9.702Zm8.626,-7.369c1.016,2.393 2.031,4.785 3.047,7.177l-8.371,3.497l-2.155,-3.194l7.479,-7.48Zm-22.908,7.169c-0.785,1.121 -1.57,2.242 -2.355,3.363l-7.735,-3.231l2.994,-7.229l7.096,7.097Zm22.534,-8.051c-2.537,2.537 -5.074,5.074 -7.611,7.611l-6.639,-9.842l8.282,-11.827l5.968,14.058Zm-30.31,0.274l-2.94,7.097l-6.995,-17.031l9.935,9.934Zm14.982,-2.514c-2.229,3.184 -4.459,6.367 -6.688,9.551l-7.246,-7.246l5.893,-14.226l8.041,11.921Zm19.247,9.2l-2.867,-6.755l9.573,-9.573l-6.706,16.328Zm-27.884,-22.005l-5.977,14.43l-10.338,-10.338c2.406,-5.859 4.813,-11.718 7.219,-17.578l9.096,13.486Zm34.795,4.214c-3.384,3.385 -6.768,6.769 -10.153,10.153l-6.044,-14.239l9.152,-13.07l7.045,17.156Zm-17.207,-4.192c-2.802,4.001 -5.603,8.002 -8.405,12.003l-8.179,-12.126l8.165,-19.711l8.419,19.834Zm9.658,-13.794c-3.019,4.312 -6.038,8.624 -9.057,12.935l-8.544,-20.127l0.057,-0.137l17.544,7.329Zm-18.564,-7.188l-8.274,19.975l-8.757,-12.982c5.662,-2.365 11.325,-4.731 16.987,-7.096l0.044,0.103Z" style="fill:#303841;"/><rect id="Logo-only" serif:id="Logo only" x="0" y="0" width="51.111" height="51.556" style="fill:none;"/></svg>