<?xml version="1.0" encoding="UTF-8" standalone="no"?>
<!DOCTYPE svg PUBLIC "-//W3C//DTD SVG 1.1//EN" "http://www.w3.org/Graphics/SVG/1.1/DTD/svg11.dtd">
<svg width="100%" height="100%" viewBox="0 0 352 277" version="1.1" xmlns="http://www.w3.org/2000/svg" xmlns:xlink="http://www.w3.org/1999/xlink" xml:space="preserve" xmlns:serif="http://www.serif.com/" style="fill-rule:evenodd;clip-rule:evenodd;stroke-linejoin:round;stroke-miterlimit:2;">
    <g id="Artboard1" transform="matrix(0.826291,0,0,0.857585,-1022.12,-598.594)">
        <rect x="1237" y="698" width="426" height="323" style="fill:none;"/>
        <g transform="matrix(0.312999,0,0,0.273884,1032.02,832.369)">
            <g transform="matrix(153.565,0,0,153.565,655,684)">
                <path d="M0.024,-0.7L0.193,-0.7L0.406,-0.381L0.602,-0.7L0.767,-0.7L0.335,0L0.171,0L0.325,-0.25L0.024,-0.7Z" style="fill:rgb(48,56,65);fill-rule:nonzero;"/>
            </g>
            <g transform="matrix(153.565,0,0,153.565,768.974,684)">
                <path d="M0.417,-0.718C0.484,-0.718 0.546,-0.701 0.602,-0.668C0.657,-0.635 0.702,-0.591 0.735,-0.535C0.768,-0.479 0.784,-0.418 0.784,-0.35C0.784,-0.282 0.768,-0.221 0.735,-0.165C0.702,-0.109 0.657,-0.065 0.602,-0.032C0.546,0.001 0.484,0.018 0.417,0.018C0.349,0.018 0.287,0.001 0.231,-0.032C0.176,-0.065 0.131,-0.109 0.098,-0.165C0.065,-0.221 0.049,-0.282 0.049,-0.35C0.049,-0.418 0.065,-0.479 0.098,-0.535C0.131,-0.591 0.176,-0.635 0.231,-0.668C0.287,-0.701 0.349,-0.718 0.417,-0.718ZM0.417,-0.578C0.354,-0.578 0.3,-0.555 0.256,-0.511C0.211,-0.467 0.189,-0.413 0.189,-0.35C0.189,-0.287 0.211,-0.234 0.256,-0.189C0.3,-0.145 0.354,-0.123 0.417,-0.123C0.479,-0.123 0.533,-0.145 0.577,-0.189C0.622,-0.234 0.644,-0.287 0.644,-0.35C0.644,-0.413 0.622,-0.467 0.577,-0.511C0.533,-0.555 0.479,-0.578 0.417,-0.578Z" style="fill:rgb(48,56,65);fill-rule:nonzero;"/>
            </g>
            <g transform="matrix(153.565,0,0,153.565,896.895,684)">
                <path d="M0.588,-0.7L0.728,-0.7L0.728,-0.298C0.728,-0.24 0.714,-0.187 0.686,-0.139C0.657,-0.091 0.619,-0.053 0.572,-0.025C0.524,0.003 0.471,0.018 0.413,0.018C0.355,0.018 0.302,0.003 0.254,-0.025C0.206,-0.053 0.168,-0.091 0.14,-0.139C0.112,-0.187 0.098,-0.24 0.098,-0.298L0.098,-0.7L0.238,-0.7L0.238,-0.298C0.238,-0.249 0.255,-0.208 0.289,-0.174C0.323,-0.14 0.365,-0.123 0.413,-0.123C0.461,-0.123 0.502,-0.14 0.537,-0.174C0.571,-0.208 0.588,-0.249 0.588,-0.298L0.588,-0.7Z" style="fill:rgb(48,56,65);fill-rule:nonzero;"/>
            </g>
            <g transform="matrix(153.565,0,0,153.565,1023.69,684)">
                <path d="M0.38,0.018C0.252,0.018 0.142,-0.02 0.049,-0.095L0.148,-0.204C0.21,-0.146 0.289,-0.117 0.384,-0.117C0.471,-0.117 0.515,-0.141 0.515,-0.19C0.515,-0.214 0.502,-0.233 0.478,-0.246C0.454,-0.26 0.407,-0.274 0.339,-0.289C0.286,-0.3 0.24,-0.315 0.201,-0.333C0.162,-0.35 0.132,-0.373 0.111,-0.402C0.09,-0.431 0.08,-0.465 0.08,-0.503C0.08,-0.564 0.104,-0.615 0.154,-0.656C0.203,-0.697 0.269,-0.718 0.353,-0.718C0.469,-0.718 0.566,-0.688 0.643,-0.628L0.556,-0.513C0.499,-0.563 0.432,-0.588 0.356,-0.588C0.315,-0.588 0.285,-0.581 0.266,-0.567C0.247,-0.553 0.237,-0.536 0.237,-0.516C0.237,-0.487 0.251,-0.467 0.278,-0.455C0.305,-0.443 0.352,-0.429 0.419,-0.414C0.499,-0.395 0.56,-0.37 0.603,-0.337C0.646,-0.305 0.667,-0.258 0.667,-0.198C0.667,-0.131 0.641,-0.078 0.587,-0.04C0.534,-0.002 0.465,0.018 0.38,0.018Z" style="fill:rgb(48,56,65);fill-rule:nonzero;"/>
            </g>
            <g transform="matrix(153.565,0,0,153.565,1133.69,684)">
                <path d="M0.417,-0.718C0.484,-0.718 0.546,-0.701 0.602,-0.668C0.657,-0.635 0.702,-0.591 0.735,-0.535C0.768,-0.479 0.784,-0.418 0.784,-0.35C0.784,-0.282 0.768,-0.221 0.735,-0.165C0.702,-0.109 0.657,-0.065 0.602,-0.032C0.546,0.001 0.484,0.018 0.417,0.018C0.349,0.018 0.287,0.001 0.231,-0.032C0.176,-0.065 0.131,-0.109 0.098,-0.165C0.065,-0.221 0.049,-0.282 0.049,-0.35C0.049,-0.418 0.065,-0.479 0.098,-0.535C0.131,-0.591 0.176,-0.635 0.231,-0.668C0.287,-0.701 0.349,-0.718 0.417,-0.718ZM0.417,-0.578C0.354,-0.578 0.3,-0.555 0.256,-0.511C0.211,-0.467 0.189,-0.413 0.189,-0.35C0.189,-0.287 0.211,-0.234 0.256,-0.189C0.3,-0.145 0.354,-0.123 0.417,-0.123C0.479,-0.123 0.533,-0.145 0.577,-0.189C0.622,-0.234 0.644,-0.287 0.644,-0.35C0.644,-0.413 0.622,-0.467 0.577,-0.511C0.533,-0.555 0.479,-0.578 0.417,-0.578Z" style="fill:rgb(48,56,65);fill-rule:nonzero;"/>
            </g>
            <g transform="matrix(153.565,0,0,153.565,1261.61,684)">
                <path d="M0.098,-0.7L0.728,-0.7L0.728,-0.56L0.098,-0.56L0.098,-0.7ZM0.238,-0.28L0.238,0L0.098,0L0.098,-0.42L0.658,-0.42L0.658,-0.28L0.238,-0.28Z" style="fill:rgb(48,56,65);fill-rule:nonzero;"/>
            </g>
            <g transform="matrix(153.565,0,0,153.565,1384.58,684)">
                <path d="M0.318,0L0.318,-0.56L0.073,-0.56L0.073,-0.7L0.704,-0.7L0.704,-0.56L0.458,-0.56L0.458,0L0.318,0Z" style="fill:rgb(48,56,65);fill-rule:nonzero;"/>
            </g>
            <g transform="matrix(153.565,0,0,153.565,1503.88,684)">
                <path d="M0.024,-0.7L0.173,-0.7L0.348,-0.196L0.517,-0.603L0.687,-0.196L0.862,-0.7L1.01,-0.7L0.767,0L0.634,0L0.517,-0.291L0.4,0L0.268,0L0.024,-0.7Z" style="fill:rgb(48,56,65);fill-rule:nonzero;"/>
            </g>
            <g transform="matrix(153.565,0,0,153.565,1647.77,684)">
                <path d="M0.383,-0.7L0.469,-0.7L0.819,0L0.693,0L0.266,-0.164L0.182,0L0.024,0L0.383,-0.7ZM0.425,-0.475L0.33,-0.29L0.563,-0.2L0.425,-0.475Z" style="fill:rgb(48,56,65);fill-rule:nonzero;"/>
            </g>
            <g transform="matrix(153.565,0,0,153.565,1777.27,684)">
                <path d="M0.238,-0.56L0.238,0L0.098,0L0.098,-0.7L0.483,-0.7C0.551,-0.7 0.608,-0.676 0.656,-0.628C0.704,-0.581 0.728,-0.523 0.728,-0.455C0.728,-0.401 0.713,-0.354 0.682,-0.312C0.652,-0.27 0.612,-0.241 0.563,-0.224L0.786,0L0.588,0L0.343,-0.245L0.343,-0.35L0.483,-0.35C0.512,-0.35 0.537,-0.36 0.557,-0.381C0.578,-0.401 0.588,-0.426 0.588,-0.455C0.588,-0.484 0.578,-0.509 0.557,-0.529C0.537,-0.55 0.512,-0.56 0.483,-0.56L0.238,-0.56Z" style="fill:rgb(48,56,65);fill-rule:nonzero;"/>
            </g>
            <g transform="matrix(153.565,0,0,153.565,1900.32,684)">
                <path d="M0.098,-0.7L0.728,-0.7L0.728,-0.56L0.098,-0.56L0.098,-0.7ZM0.238,-0.28L0.238,-0.14L0.728,-0.14L0.728,0L0.098,0L0.098,-0.42L0.658,-0.42L0.658,-0.28L0.238,-0.28Z" style="fill:rgb(48,56,65);fill-rule:nonzero;"/>
            </g>
        </g>
        <g id="Logo" transform="matrix(1.21023,0,0,1.16606,426.009,319.127)">
            <path d="M844.558,557.387C844.419,557.526 844.28,557.666 844.14,557.805L805.151,541.516L814.844,527.673L844.558,557.387ZM878.521,529.081L887.335,542.149L850.406,557.577C850.342,557.514 850.279,557.45 850.215,557.387L878.521,529.081ZM876.242,525.703C866.624,535.322 857.005,544.94 847.387,554.558L817.174,524.346L846.794,482.044L876.242,525.703ZM915.058,492.544C919.628,503.309 924.197,514.074 928.767,524.839L891.099,540.576L881.402,526.2L915.058,492.544ZM811.972,524.801C808.439,529.846 804.906,534.892 801.373,539.938L766.565,525.396L780.039,492.867L811.972,524.801ZM913.373,488.573C901.956,499.989 890.54,511.405 879.124,522.822L849.251,478.534L886.519,425.31L913.373,488.573ZM776.978,489.806L763.749,521.744L732.274,445.103L776.978,489.806ZM844.398,478.492C834.366,492.819 824.334,507.146 814.302,521.473L781.696,488.867L808.214,424.847L844.398,478.492ZM931.012,519.891L918.109,489.493L961.187,446.416L931.012,519.891ZM805.532,420.87L778.634,485.806L732.115,439.286C742.943,412.919 753.771,386.552 764.599,360.185L805.532,420.87ZM962.111,439.835C946.882,455.064 931.652,470.293 916.423,485.522L889.225,421.446L930.406,362.633L962.111,439.835ZM884.676,420.968C872.069,438.973 859.462,456.978 846.855,474.982L810.05,420.415L846.791,331.715L884.676,420.968ZM928.138,358.898C914.553,378.3 900.967,397.703 887.382,417.105L848.937,326.534L849.193,325.916L928.138,358.898ZM844.599,326.553L807.367,416.439L767.964,358.02C793.443,347.375 818.922,336.731 844.401,326.086L844.599,326.553Z" style="fill:rgb(48,56,65);"/>
        </g>
    </g>
</svg>
